<svg xmlns="http://www.w3.org/2000/svg" xmlns:xlink="http://www.w3.org/1999/xlink" viewBox="0 0 316.98 199.17"><defs><style>.cls-1{fill:url(#linear-gradient);}.cls-2{fill:url(#linear-gradient-2);}.cls-3{fill:url(#linear-gradient-3);}.cls-4{fill:url(#linear-gradient-4);}.cls-5{fill:none;stroke:#fff;stroke-linecap:round;stroke-linejoin:round;stroke-width:6px;}</style><linearGradient id="linear-gradient" x1="225.61" y1="102.97" x2="258" y2="102.97" gradientUnits="userSpaceOnUse"><stop offset="0" stop-color="#83b755"/><stop offset="0.13" stop-color="#70b26d"/><stop offset="0.41" stop-color="#4aa89a"/><stop offset="0.66" stop-color="#2fa1bb"/><stop offset="0.86" stop-color="#1e9dd0"/><stop offset="1" stop-color="#189bd7"/></linearGradient><linearGradient id="linear-gradient-2" x1="162.14" y1="17.73" x2="201.92" y2="17.73" xlink:href="#linear-gradient"/><linearGradient id="linear-gradient-3" x1="74.89" y1="83.17" x2="100.33" y2="83.17" xlink:href="#linear-gradient"/><linearGradient id="linear-gradient-4" x1="124.85" y1="76.33" x2="189.58" y2="76.33" xlink:href="#linear-gradient"/></defs><title>cP18_iconAsset 61@1x</title><g id="Layer_2" data-name="Layer 2"><g id="stroked"><polygon class="cls-1" points="258 113.28 247.78 111.02 242.86 117.99 237.58 110.64 228.88 117.54 225.61 110.23 240.9 87.95 258 113.28"/><path class="cls-2" d="M201.92,6.36V29.1s-11.08,7.55-19.53,0-19.52,0-19.52,0h-.73V6.36h.73s11.08-7.56,19.52,0S201.92,6.36,201.92,6.36Z"/><polygon class="cls-3" points="99.88 85.69 100.33 97.12 92.31 90.95 85.33 97.12 80.28 89.08 75.02 90.06 74.89 89.97 88.93 69.23 100.12 85.53 99.88 85.69"/><polygon class="cls-4" points="161.8 45.14 189.58 88.59 188.87 89.04 181.07 103.75 172.16 86.04 164.98 107.52 156.94 93.99 145.16 103.75 140.85 91.9 125.39 103.75 124.85 103.4 161.8 45.14"/><polyline class="cls-5" points="66.01 196.17 124.85 103.4 161.8 45.14 189.58 88.59 258.37 196.17"/><polyline class="cls-5" points="3 196.17 74.89 89.97 88.93 69.23 100.12 85.53 117.09 110.25"/><polyline class="cls-5" points="313.98 196.17 258 113.28 240.9 87.95 225.61 110.23 216.59 123.37"/><polyline class="cls-5" points="75.02 90.06 80.28 89.08 85.33 97.12 92.31 90.95 100.33 97.12 99.88 85.69"/><polyline class="cls-5" points="188.87 89.04 181.07 103.75 172.16 86.04 164.98 107.52 156.94 93.99 145.16 103.75 140.85 91.9 125.39 103.75"/><polyline class="cls-5" points="258.34 113.35 258 113.28 247.78 111.02 242.86 117.99 237.58 110.64 228.88 117.54 225.61 110.23"/><polyline class="cls-5" points="162.14 45.12 162.14 29.1 162.14 6.36 162.14 6.33"/><path class="cls-5" d="M162.87,29.1s11.08-7.56,19.52,0,19.53,0,19.53,0V6.36s-11.08,7.55-19.53,0-19.52,0-19.52,0"/></g></g></svg>