<svg xmlns="http://www.w3.org/2000/svg" xmlns:xlink="http://www.w3.org/1999/xlink" viewBox="0 0 197.47 228.83"><defs><style>.cls-1{fill:#1f2c38;}.cls-2{fill:url(#linear-gradient);}.cls-3{fill:#fff;}</style><linearGradient id="linear-gradient" x1="51.41" y1="109.27" x2="128.48" y2="169.17" gradientUnits="userSpaceOnUse"><stop offset="0" stop-color="#83b755"/><stop offset="0.13" stop-color="#70b26d"/><stop offset="0.41" stop-color="#4aa89a"/><stop offset="0.66" stop-color="#2fa1bb"/><stop offset="0.86" stop-color="#1e9dd0"/><stop offset="1" stop-color="#189bd7"/></linearGradient></defs><title>cP18_iconAsset 49@1x</title><g id="Layer_2" data-name="Layer 2"><g id="outlined"><path class="cls-1" d="M138.38,37.7a39.75,39.75,0,0,0-9.7-24.05A39.54,39.54,0,0,0,101.56.11C100.62.05,99.68,0,98.73,0L97.56,0a40.06,40.06,0,0,0-9.49,1.43A38.75,38.75,0,0,0,82.23,3.6a39.67,39.67,0,0,0-13,9.56c-.92,1-1.79,2.11-2.61,3.23A39.49,39.49,0,0,0,59.09,37.7c0,.66-.05,1.33-.05,2s0,1.34.05,2A39.41,39.41,0,0,0,66,62.18c.78,1.13,1.62,2.22,2.51,3.27A39.73,39.73,0,0,0,83,76.13a38.36,38.36,0,0,0,6,2.06,40.05,40.05,0,0,0,8.55,1.18c.39,0,.78,0,1.17,0,1,0,1.89-.05,2.83-.11a39.68,39.68,0,0,0,27.81-14.35,37.71,37.71,0,0,0,2.45-3.31,39.39,39.39,0,0,0,6.56-19.93c0-.66.05-1.33.05-2S138.41,38.36,138.38,37.7ZM79.66,9.55c-.74,2-1.41,4.16-2,6.4-1.49-.38-3-.8-4.36-1.27A36.19,36.19,0,0,1,79.66,9.55Zm-9.19,8.38c2,.71,4.09,1.34,6.28,1.9A93.84,93.84,0,0,0,74.84,37.7H63.09A35.57,35.57,0,0,1,70.47,17.93Zm-.63,42.69A35.53,35.53,0,0,1,63.09,41.7H74.85a93.89,93.89,0,0,0,1.9,16.79A70.12,70.12,0,0,0,69.84,60.62Zm2.69,3.29c1.65-.57,3.36-1.09,5.13-1.54a68.44,68.44,0,0,0,2.55,7.83A35.81,35.81,0,0,1,72.53,63.91Zm25,11.46A35.49,35.49,0,0,1,85.82,73c0-.11-.12-.22-.17-.34a58.34,58.34,0,0,1-4.1-11.16,90.6,90.6,0,0,1,16-1.7Zm0-19.6a93.71,93.71,0,0,0-16.92,1.82A89.09,89.09,0,0,1,78.85,41.7H97.56Zm0-18.07H78.84a90,90,0,0,1,1.8-17,93.71,93.71,0,0,0,16.92,1.82Zm0-19.15a90.6,90.6,0,0,1-16-1.7A59.53,59.53,0,0,1,85.18,6.68,35.45,35.45,0,0,1,97.56,4Zm27-3.47c-1,.31-2,.6-3.1.87Q120.78,13.4,120,11A36.66,36.66,0,0,1,124.55,15.08Zm-23-11a35.37,35.37,0,0,1,12.8,3.49,61.09,61.09,0,0,1,3.21,9.24,90.8,90.8,0,0,1-16,1.7Zm0,18.43a93.81,93.81,0,0,0,16.92-1.82,90.81,90.81,0,0,1,1.8,17H101.56Zm12.16,49.53a35.26,35.26,0,0,1-12.16,3.19V59.77a90.8,90.8,0,0,1,16,1.7A59.56,59.56,0,0,1,113.72,72.08ZM101.56,55.77V41.7h18.7a90,90,0,0,1-1.78,15.89A93.81,93.81,0,0,0,101.56,55.77Zm17.91,13c.74-2,1.4-4.14,2-6.36,1.32.34,2.62.71,3.87,1.11A35.59,35.59,0,0,1,119.47,68.73ZM128,60.16c-1.78-.62-3.65-1.18-5.59-1.67a93.91,93.91,0,0,0,1.89-16.79h10.11A35.51,35.51,0,0,1,128,60.16ZM124.28,37.7a94.66,94.66,0,0,0-1.91-17.87q2.58-.66,5-1.45a35.5,35.5,0,0,1,7,19.32Z"/><path class="cls-1" d="M120.49,220.76H77a2,2,0,0,1,0-4h43.51a2,2,0,1,1,0,4Z"/><path d="M102.27,179.16a6.3,6.3,0,0,0-3.54-1.08,6.4,6.4,0,0,0-3.09.79A6.4,6.4,0,0,1,102.27,179.16Z"/><path class="cls-1" d="M155,93.72H42.47a12,12,0,0,0-12,12V186a12,12,0,0,0,12,12H83.55L71.26,219.32a6.26,6.26,0,0,0-.86,3.27,6.35,6.35,0,0,0,6.35,6.24h44a6.34,6.34,0,0,0,6.35-6.24,6.25,6.25,0,0,0-.85-3.27L113.91,198H155a12,12,0,0,0,12-12V105.72A12,12,0,0,0,155,93.72ZM122.74,223.66a2.3,2.3,0,0,1-2,1.17h-44a2.34,2.34,0,0,1-2-3.51L88.17,198h21.12l13.45,23.29A2.31,2.31,0,0,1,122.74,223.66ZM163,186a8,8,0,0,1-8,8H42.47a8,8,0,0,1-8-8V105.72a8,8,0,0,1,8-8H155a8,8,0,0,1,8,8Z"/><rect class="cls-2" x="41.07" y="103.76" width="114.77" height="84.14" rx="6.98"/><circle class="cls-3" cx="50.95" cy="112.46" r="2.62"/><path d="M51,109.84a2.62,2.62,0,1,0,2.62,2.62A2.61,2.61,0,0,0,51,109.84Z"/><circle class="cls-3" cx="60.68" cy="112.46" r="2.62"/><path d="M60.68,109.84a2.62,2.62,0,1,0,2.62,2.62,2.62,2.62,0,0,0-2.62-2.62Z"/><circle class="cls-3" cx="70.4" cy="112.46" r="2.62"/><path d="M70.4,109.84A2.62,2.62,0,1,0,73,112.46a2.62,2.62,0,0,0-2.62-2.62Z"/><path class="cls-1" d="M90.12,168.48a2,2,0,0,1-1.41-3.41L113.82,140a2,2,0,1,1,2.83,2.83l-25.11,25.1A2,2,0,0,1,90.12,168.48Z"/><path class="cls-1" d="M90.12,152.38A2,2,0,0,1,88.71,149l25.11-25.1a2,2,0,0,1,2.83,2.82L91.54,151.79A2,2,0,0,1,90.12,152.38Z"/><path class="cls-1" d="M121,137.62a2,2,0,0,1-1.41-.58,2,2,0,0,1,0-2.83l7.2-7.2a2,2,0,0,1,2.82,2.83L122.4,137A2,2,0,0,1,121,137.62Z"/><path class="cls-1" d="M18.5,154.88H16a2.5,2.5,0,0,1,0-5h2.5a2.5,2.5,0,0,1,0,5Z"/><path class="cls-1" d="M5,154.88H2.5a2.5,2.5,0,0,1-2.5-2.5v-2.5a2.5,2.5,0,0,1,5,0,2.5,2.5,0,0,1,0,5Z"/><path class="cls-1" d="M2.5,141.81a2.5,2.5,0,0,1-2.5-2.5V134a2.5,2.5,0,0,1,5,0v5.28A2.5,2.5,0,0,1,2.5,141.81ZM2.5,126a2.5,2.5,0,0,1-2.5-2.5v-5.28a2.5,2.5,0,0,1,5,0v5.28A2.5,2.5,0,0,1,2.5,126Zm0-15.85a2.5,2.5,0,0,1-2.5-2.5v-5.29a2.5,2.5,0,0,1,5,0v5.29A2.5,2.5,0,0,1,2.5,110.11Zm0-15.85A2.5,2.5,0,0,1,0,91.76V86.47a2.5,2.5,0,0,1,5,0v5.29A2.5,2.5,0,0,1,2.5,94.26Zm0-15.86A2.5,2.5,0,0,1,0,75.9V70.62a2.5,2.5,0,0,1,5,0V75.9A2.5,2.5,0,0,1,2.5,78.4Zm0-15.85A2.5,2.5,0,0,1,0,60.05V54.77a2.5,2.5,0,0,1,5,0v5.28A2.5,2.5,0,0,1,2.5,62.55Z"/><path class="cls-1" d="M2.5,46.7A2.5,2.5,0,0,1,0,44.2V41.7a2.5,2.5,0,0,1,2.5-2.5H5a2.5,2.5,0,0,1,0,5A2.5,2.5,0,0,1,2.5,46.7Z"/><path class="cls-1" d="M30.39,44.2H26.16a2.5,2.5,0,1,1,0-5h4.23a2.5,2.5,0,0,1,0,5Zm-12.7,0H13.46a2.5,2.5,0,0,1,0-5h4.23a2.5,2.5,0,0,1,0,5Z"/><path class="cls-1" d="M41.35,44.2h-2.5a2.5,2.5,0,0,1,0-5h2.5a2.5,2.5,0,1,1,0,5Z"/><path class="cls-1" d="M181.47,154.88H179a2.5,2.5,0,0,1,0-5h2.5a2.5,2.5,0,1,1,0,5Z"/><path class="cls-1" d="M195,154.88h-2.5a2.5,2.5,0,0,1,0-5,2.5,2.5,0,0,1,5,0v2.5A2.5,2.5,0,0,1,195,154.88Z"/><path class="cls-1" d="M195,141.81a2.5,2.5,0,0,1-2.5-2.5V134a2.5,2.5,0,0,1,5,0v5.28A2.5,2.5,0,0,1,195,141.81ZM195,126a2.5,2.5,0,0,1-2.5-2.5v-5.28a2.5,2.5,0,1,1,5,0v5.28A2.5,2.5,0,0,1,195,126Zm0-15.85a2.5,2.5,0,0,1-2.5-2.5v-5.29a2.5,2.5,0,1,1,5,0v5.29A2.5,2.5,0,0,1,195,110.11Zm0-15.85a2.5,2.5,0,0,1-2.5-2.5V86.47a2.5,2.5,0,0,1,5,0v5.29A2.5,2.5,0,0,1,195,94.26Zm0-15.86a2.5,2.5,0,0,1-2.5-2.5V70.62a2.5,2.5,0,0,1,5,0V75.9A2.5,2.5,0,0,1,195,78.4Zm0-15.85a2.5,2.5,0,0,1-2.5-2.5V54.77a2.5,2.5,0,0,1,5,0v5.28A2.5,2.5,0,0,1,195,62.55Z"/><path class="cls-1" d="M195,46.7a2.5,2.5,0,0,1-2.5-2.5,2.5,2.5,0,0,1,0-5H195a2.5,2.5,0,0,1,2.5,2.5v2.5A2.5,2.5,0,0,1,195,46.7Z"/><path class="cls-1" d="M184,44.2h-4.23a2.5,2.5,0,0,1,0-5H184a2.5,2.5,0,0,1,0,5Zm-12.69,0h-4.23a2.5,2.5,0,0,1,0-5h4.23a2.5,2.5,0,0,1,0,5Z"/><path class="cls-1" d="M158.62,44.2h-2.5a2.5,2.5,0,0,1,0-5h2.5a2.5,2.5,0,0,1,0,5Z"/><polygon class="cls-1" points="47.53 41.7 35.17 31.68 35.17 51.72 47.53 41.7"/><polygon class="cls-1" points="149.94 41.7 162.3 31.68 162.3 51.72 149.94 41.7"/></g></g></svg>