<svg xmlns="http://www.w3.org/2000/svg" xmlns:xlink="http://www.w3.org/1999/xlink" viewBox="0 0 252.61 263.75"><defs><style>.cls-1{fill:#1f2c38;}.cls-2{fill:#fff;}.cls-3{fill:url(#linear-gradient);}.cls-4{fill:url(#linear-gradient-2);}.cls-5{fill:url(#linear-gradient-3);}.cls-6{fill:url(#linear-gradient-4);}.cls-7{fill:url(#linear-gradient-5);}</style><linearGradient id="linear-gradient" x1="-1660.92" y1="1373.77" x2="-1628.03" y2="1373.77" gradientTransform="matrix(0.82, 0.57, -0.57, 0.82, 2272.92, -27.42)" gradientUnits="userSpaceOnUse"><stop offset="0" stop-color="#83b755"/><stop offset="0.13" stop-color="#70b26d"/><stop offset="0.41" stop-color="#4aa89a"/><stop offset="0.66" stop-color="#2fa1bb"/><stop offset="0.86" stop-color="#1e9dd0"/><stop offset="1" stop-color="#189bd7"/></linearGradient><linearGradient id="linear-gradient-2" x1="-1657" y1="1330.2" x2="-1624.12" y2="1330.2" xlink:href="#linear-gradient"/><linearGradient id="linear-gradient-3" x1="-1615.69" y1="1325.87" x2="-1582.81" y2="1325.87" xlink:href="#linear-gradient"/><linearGradient id="linear-gradient-4" x1="-1617.94" y1="1285.23" x2="-1585.06" y2="1285.23" xlink:href="#linear-gradient"/><linearGradient id="linear-gradient-5" x1="13.65" y1="84.16" x2="130.59" y2="84.16" gradientTransform="matrix(1, 0, 0, 1, 0, 0)" xlink:href="#linear-gradient"/></defs><title>cP18_iconAsset 50@1x</title><g id="Layer_2" data-name="Layer 2"><g id="outlined"><path class="cls-1" d="M246.14,67.93H31.86a3.24,3.24,0,1,1,0-6.47H246.14a3.24,3.24,0,1,1,0,6.47Z"/><path class="cls-1" d="M233.21,45.29h-182A19.47,19.47,0,0,0,31.86,64.7V194.54a19.46,19.46,0,0,0,19.4,19.4h66.43l3.73-6.47H51.26a13,13,0,0,1-12.94-12.93V64.7A13,13,0,0,1,51.26,51.76h182A13,13,0,0,1,246.14,64.7V194.54a12.94,12.94,0,0,1-12.93,12.93H163l3.74,6.47h66.43a19.46,19.46,0,0,0,19.4-19.4V64.7A19.47,19.47,0,0,0,233.21,45.29Z"/><circle class="cls-2" cx="72.37" cy="84.16" r="70"/><circle class="cls-3" cx="138.84" cy="165.54" r="16.44"/><circle class="cls-4" cx="166.87" cy="131.95" r="16.44"/><circle class="cls-5" cx="203.29" cy="151.91" r="16.44"/><circle class="cls-6" cx="224.58" cy="117.22" r="16.44"/><path class="cls-1" d="M177,250.7H106.6a3.24,3.24,0,0,1,0-6.47H177a3.24,3.24,0,1,1,0,6.47Z"/><path class="cls-1" d="M186.65,248.37a10.1,10.1,0,0,1,1.39,5.28,10.1,10.1,0,0,0-1.39-5.28l-19.87-34.43h0Z"/><path class="cls-1" d="M177.77,263.75H106.69a10.26,10.26,0,0,1-10.26-10.1,10.26,10.26,0,0,0,10.26,10.1h71.08A10.27,10.27,0,0,0,188,253.65,10.27,10.27,0,0,1,177.77,263.75Z"/><path class="cls-1" d="M166.78,213.94h-7.47l21.74,37.66a3.79,3.79,0,0,1-3.28,5.68H106.69a3.79,3.79,0,0,1-3.27-5.68l21.74-37.66h-7.47L97.81,248.37a10.24,10.24,0,0,0,8.88,15.38h71.08A10.27,10.27,0,0,0,188,253.65a10.1,10.1,0,0,0-1.39-5.28Z"/><polygon class="cls-1" points="163.04 207.47 166.78 213.94 166.78 213.94 163.04 207.47 163.04 207.47"/><polygon class="cls-1" points="128.89 207.47 125.16 213.94 159.31 213.94 155.58 207.47 128.89 207.47"/><polygon class="cls-1" points="159.31 213.94 166.78 213.94 163.04 207.47 155.58 207.47 159.31 213.94"/><path class="cls-1" d="M248.23,191.68H35.61a3.24,3.24,0,1,1,0-6.47H248.23a3.24,3.24,0,1,1,0,6.47Z"/><path class="cls-1" d="M236.51,82.49h-77.2a3.23,3.23,0,1,1,0-6.46h77.2a3.23,3.23,0,1,1,0,6.46Z"/><path class="cls-1" d="M236.51,96.56h-77.2a3.24,3.24,0,0,1,0-6.47h77.2a3.24,3.24,0,0,1,0,6.47Z"/><circle class="cls-2" cx="203.31" cy="152.23" r="6.37"/><path class="cls-1" d="M203.32,145.86a6.37,6.37,0,0,1,.46,12.73l-.47,0a6.37,6.37,0,0,1-.46-12.73l.47,0m0-6.47c-.31,0-.62,0-.94,0a12.84,12.84,0,0,0,.93,25.65c.31,0,.62,0,.94,0a12.84,12.84,0,0,0-.93-25.65Z"/><circle class="cls-2" cx="166.49" cy="131.98" r="6.37"/><path class="cls-1" d="M166.5,125.61a6.37,6.37,0,0,1,.45,12.73l-.47,0a6.38,6.38,0,0,1-.45-12.74h.47m0-6.47h0c-.31,0-.63,0-.94,0a12.84,12.84,0,0,0,.92,25.65c.31,0,.63,0,.94,0a12.84,12.84,0,0,0-.92-25.65Z"/><circle class="cls-2" cx="224.58" cy="117.22" r="6.37"/><path class="cls-1" d="M224.59,110.85a6.37,6.37,0,0,1,.46,12.73l-.47,0a6.37,6.37,0,0,1-.46-12.73,3.77,3.77,0,0,1,.47,0m0-6.47-.94,0a12.85,12.85,0,0,0,.93,25.66c.31,0,.62,0,.94,0a12.84,12.84,0,0,0-.93-25.65Z"/><path class="cls-1" d="M144.87,160.07a3.23,3.23,0,0,1-2.43-5.37l14.82-16.88a3.23,3.23,0,0,1,4.86,4.27L147.3,159A3.21,3.21,0,0,1,144.87,160.07Z"/><path class="cls-1" d="M192.91,151.24a3.22,3.22,0,0,1-1.95-.65l-16.53-12.48a3.23,3.23,0,0,1,3.9-5.16l16.53,12.48a3.23,3.23,0,0,1-2,5.81Z"/><path class="cls-1" d="M209,146.21a3.23,3.23,0,0,1-2.77-4.9l9.84-16.44a3.23,3.23,0,1,1,5.54,3.32l-9.83,16.44A3.25,3.25,0,0,1,209,146.21Z"/><circle class="cls-7" cx="72.12" cy="84.16" r="58.47"/><path class="cls-2" d="M117.69,213.94h0L97.81,248.37a10.18,10.18,0,0,0-1.38,5.28,10.18,10.18,0,0,1,1.38-5.28Z"/><polygon class="cls-1" points="121.42 207.47 121.42 207.47 117.69 213.94 117.69 213.94 121.42 207.47"/><polygon class="cls-1" points="121.42 207.47 117.69 213.94 125.16 213.94 128.89 207.47 121.42 207.47"/><path class="cls-2" d="M3.3,86.68a69.78,69.78,0,0,0,67.82,67.23V86.68Z"/><path class="cls-1" d="M73,157.19A73,73,0,0,1,48.7,15.28a3.23,3.23,0,1,1,2.15,6.1,66.56,66.56,0,1,0,42-.79,3.24,3.24,0,0,1,1.92-6.18A73,73,0,0,1,73,157.19Z"/><path class="cls-1" d="M73,87.39H7a3.24,3.24,0,0,1,0-6.47H73a3.24,3.24,0,0,1,0,6.47Z"/><path class="cls-1" d="M73,153.5a3.23,3.23,0,0,1-3.23-3.24V84.16a3.23,3.23,0,1,1,6.46,0v66.1A3.23,3.23,0,0,1,73,153.5Z"/><path class="cls-1" d="M73,86.68a3.23,3.23,0,0,1-3.23-3.24v-9.7a3.23,3.23,0,0,1,6.46,0v9.7A3.23,3.23,0,0,1,73,86.68Zm0-19.41A3.22,3.22,0,0,1,69.8,64v-9.7a3.23,3.23,0,0,1,6.46,0V64A3.22,3.22,0,0,1,73,67.27Z"/><path class="cls-1" d="M139.13,87.39h-1.61a3.24,3.24,0,1,1,0-6.47h1.61a3.24,3.24,0,1,1,0,6.47Z"/><path class="cls-1" d="M123.75,87.39h-3.44a3.24,3.24,0,1,1,0-6.47h3.44a3.24,3.24,0,0,1,0,6.47Zm-17.21,0H103.1a3.24,3.24,0,1,1,0-6.47h3.44a3.24,3.24,0,0,1,0,6.47Zm-17.21,0H85.89a3.24,3.24,0,1,1,0-6.47h3.44a3.24,3.24,0,0,1,0,6.47Z"/><path class="cls-1" d="M72.12,87.39H70.5a3.24,3.24,0,0,1,0-6.47h1.62a3.24,3.24,0,0,1,0,6.47Z"/><path class="cls-1" d="M83.54,34.37q-2.73,2.67-7.87,3.3v5.1H71.12v-5a25.06,25.06,0,0,1-6.42-1.18,16.18,16.18,0,0,1-4.91-2.46l2.5-5.55a16.67,16.67,0,0,0,4.05,2.14,18.74,18.74,0,0,0,4.78,1.09v-7.6a34,34,0,0,1-5.46-1.73,9.61,9.61,0,0,1-3.73-2.8,7.5,7.5,0,0,1-1.5-4.89,8.75,8.75,0,0,1,2.75-6.48q2.75-2.71,7.94-3.3V0h4.55V5A20,20,0,0,1,84.9,7.73l-2.27,5.6a18.29,18.29,0,0,0-7-2.37V18.7a32.48,32.48,0,0,1,5.39,1.66,9.52,9.52,0,0,1,3.71,2.77A7.46,7.46,0,0,1,86.27,28,8.59,8.59,0,0,1,83.54,34.37Zm-14.92-18a6.93,6.93,0,0,0,2.5,1.23V11.1a4.91,4.91,0,0,0-2.55,1.3,2.93,2.93,0,0,0-.82,2.07A2.3,2.3,0,0,0,68.62,16.33Zm9.5,14.15a2.65,2.65,0,0,0,.82-1.95,2.37,2.37,0,0,0-.84-1.87,7.4,7.4,0,0,0-2.43-1.27v6.28A4.9,4.9,0,0,0,78.12,30.48Z"/><path class="cls-1" d="M75.67,0V5A20,20,0,0,1,84.9,7.73l-2.27,5.6a18.29,18.29,0,0,0-7-2.37V18.7a32.48,32.48,0,0,1,5.39,1.66,9.52,9.52,0,0,1,3.71,2.77A7.46,7.46,0,0,1,86.27,28a8.59,8.59,0,0,1-2.73,6.39q-2.73,2.67-7.87,3.3v5.1H71.12v-5a25.06,25.06,0,0,1-6.42-1.18,16.18,16.18,0,0,1-4.91-2.46l2.5-5.55a16.67,16.67,0,0,0,4.05,2.14,18.74,18.74,0,0,0,4.78,1.09v-7.6a34,34,0,0,1-5.46-1.73,9.61,9.61,0,0,1-3.73-2.8,7.5,7.5,0,0,1-1.5-4.89,8.75,8.75,0,0,1,2.75-6.48q2.75-2.71,7.94-3.3V0h4.55M71.12,17.56V11.1a4.91,4.91,0,0,0-2.55,1.3,2.93,2.93,0,0,0-.82,2.07,2.3,2.3,0,0,0,.87,1.86,6.93,6.93,0,0,0,2.5,1.23m4.55,14.11a4.9,4.9,0,0,0,2.45-1.19,2.65,2.65,0,0,0,.82-1.95,2.37,2.37,0,0,0-.84-1.87,7.4,7.4,0,0,0-2.43-1.27v6.28"/><path class="cls-1" d="M73,174.43H47.67a3.23,3.23,0,0,1,0-6.46H73a3.23,3.23,0,0,1,0,6.46Z"/><path class="cls-1" d="M112.82,174.43H87.46a3.23,3.23,0,1,1,0-6.46h25.36a3.23,3.23,0,1,1,0,6.46Z"/><circle class="cls-2" cx="139.11" cy="165.52" r="6.37"/><path class="cls-1" d="M139.12,159.15a6.37,6.37,0,0,1,.46,12.73l-.47,0a6.38,6.38,0,0,1-.46-12.74h.47m0-6.47h0c-.31,0-.63,0-.94,0a12.85,12.85,0,0,0,.93,25.66c.31,0,.62,0,.94,0a12.84,12.84,0,0,0,11.87-13.74,12.89,12.89,0,0,0-12.8-11.91Z"/></g></g></svg>