<svg xmlns="http://www.w3.org/2000/svg" xmlns:xlink="http://www.w3.org/1999/xlink" viewBox="0 0 217.85 207.55"><defs><style>.cls-1{fill:none;}.cls-2{fill:url(#linear-gradient);}.cls-3{fill:url(#linear-gradient-2);}.cls-4{fill:url(#linear-gradient-3);}.cls-5{fill:url(#linear-gradient-4);}.cls-6{fill:url(#linear-gradient-5);}.cls-7{fill:url(#linear-gradient-6);}.cls-8{fill:url(#linear-gradient-7);}.cls-9{fill:url(#linear-gradient-8);}.cls-10{fill:url(#linear-gradient-9);}.cls-11{fill:url(#linear-gradient-10);}.cls-12{fill:#1f2c38;}</style><linearGradient id="linear-gradient" x1="24.51" y1="84.12" x2="193.35" y2="84.12" gradientUnits="userSpaceOnUse"><stop offset="0" stop-color="#83b755"/><stop offset="0.13" stop-color="#70b26d"/><stop offset="0.41" stop-color="#4aa89a"/><stop offset="0.66" stop-color="#2fa1bb"/><stop offset="0.86" stop-color="#1e9dd0"/><stop offset="1" stop-color="#189bd7"/></linearGradient><linearGradient id="linear-gradient-2" x1="24.51" y1="128.2" x2="193.35" y2="128.2" xlink:href="#linear-gradient"/><linearGradient id="linear-gradient-3" x1="24.51" y1="137.13" x2="193.35" y2="137.13" xlink:href="#linear-gradient"/><linearGradient id="linear-gradient-4" x1="24.51" y1="172.76" x2="193.35" y2="172.76" xlink:href="#linear-gradient"/><linearGradient id="linear-gradient-5" x1="24.51" y1="84.12" x2="193.35" y2="84.12" xlink:href="#linear-gradient"/><linearGradient id="linear-gradient-6" x1="24.51" y1="137.14" x2="193.35" y2="137.14" xlink:href="#linear-gradient"/><linearGradient id="linear-gradient-7" x1="24.51" y1="140.72" x2="193.35" y2="140.72" xlink:href="#linear-gradient"/><linearGradient id="linear-gradient-8" x1="24.51" y1="57.19" x2="193.35" y2="57.19" xlink:href="#linear-gradient"/><linearGradient id="linear-gradient-9" x1="24.51" y1="118.62" x2="193.35" y2="118.62" xlink:href="#linear-gradient"/><linearGradient id="linear-gradient-10" x1="24.51" y1="57.19" x2="193.35" y2="57.19" xlink:href="#linear-gradient"/></defs><title>cP18_iconAsset 54@1x</title><g id="Layer_2" data-name="Layer 2"><g id="stroked"><path class="cls-1" d="M193,92.91l-29.42,90.73,9.3,12.8,36-110.88-15.57,5.07A6.9,6.9,0,0,1,193,92.91Z"/><path class="cls-1" d="M156.74,188.93H61.12a7.12,7.12,0,0,1-1.85-.26l-8.63,11.88H167.22l-8.64-11.88A7,7,0,0,1,156.74,188.93Z"/><path class="cls-1" d="M104.78,28.72a7.06,7.06,0,0,1,.65-.4v-18L11.1,78.9l17.1,5.56Z"/><path class="cls-1" d="M112.43,28.32c.22.13.44.25.65.4l76.58,55.74,17.09-5.56L112.43,10.37Z"/><path class="cls-1" d="M24.85,92.91a7.17,7.17,0,0,1-.34-2.28L8.94,85.56,45,196.44l9.3-12.8Z"/><path class="cls-2" d="M112.43,109.61,158,94.76c0-.35-.05-.69-.05-1.05A14.3,14.3,0,0,1,159,88.27L118.25,58.64a14.43,14.43,0,0,1-5.82,3Z"/><path class="cls-3" d="M160.2,101.41l-45.61,14.85L142.74,155a14.42,14.42,0,0,1,5.47-1.08c.34,0,.68,0,1,.05L164.81,106A14.67,14.67,0,0,1,160.2,101.41Z"/><path class="cls-4" d="M187,93.71a14.53,14.53,0,0,1-14.51,14.51c-.34,0-.68,0-1,0l-15.58,48a14.46,14.46,0,0,1,3.42,21.63l4.28,5.88L193,92.91a6.9,6.9,0,0,0,.34-2.28l-6.4,2.08C187,93,187,93.37,187,93.71Z"/><path class="cls-5" d="M148.21,182.94a14.53,14.53,0,0,1-14.52-14.52c0-.22,0-.43,0-.65L96.12,156.58a14.46,14.46,0,0,1-18,6.12l-18.89,26a7.12,7.12,0,0,0,1.85.26h95.62a7,7,0,0,0,1.84-.26l-4.94-6.8A14.44,14.44,0,0,1,148.21,182.94Z"/><path class="cls-6" d="M59.83,94.76l45.6,14.85v-48a14.41,14.41,0,0,1-5.83-3L58.82,88.27a14.48,14.48,0,0,1,1.06,5.44C59.88,94.07,59.86,94.41,59.83,94.76Z"/><path class="cls-7" d="M70.66,142.68a14.13,14.13,0,0,1,2.17-3.12L50.5,107.27a14.34,14.34,0,0,1-5.13,1A14.53,14.53,0,0,1,30.86,93.71c0-.34,0-.67.05-1l-6.4-2.08a7.17,7.17,0,0,0,.34,2.28l29.42,90.73,18.22-25A14.53,14.53,0,0,1,70.66,142.68Z"/><path class="cls-8" d="M108.93,120.38,94.71,139.93a14.41,14.41,0,0,1,3.38,9.93l37.63,11.2a14.84,14.84,0,0,1,1.37-1.95Z"/><path class="cls-9" d="M45.37,79.2a14.43,14.43,0,0,1,9.33,3.41L95.48,53a14.47,14.47,0,0,1,10-19.51V28.32a7.06,7.06,0,0,0-.65.4L28.2,84.46l4.87,1.59A14.51,14.51,0,0,1,45.37,79.2Z"/><path class="cls-10" d="M89,135.82l14.22-19.56L57.65,101.41a14.46,14.46,0,0,1-1.4,1.87l22.39,32.37A14.42,14.42,0,0,1,89,135.82Z"/><path class="cls-11" d="M123.44,47.54A14.49,14.49,0,0,1,122.37,53l40.78,29.63a14.47,14.47,0,0,1,21.63,3.44l4.88-1.59L113.08,28.72c-.21-.15-.43-.27-.65-.4v5.15A14.52,14.52,0,0,1,123.44,47.54Z"/><path class="cls-12" d="M217.84,79.85a1.49,1.49,0,0,0,0-.21,2.74,2.74,0,0,0-.13-.62h0a3.68,3.68,0,0,0-.26-.57l-.1-.18c-.08-.12-.16-.24-.25-.35l-.15-.17a2.94,2.94,0,0,0-.31-.3l-.15-.12-.05,0L111,.67s0,0,0,0l-.18-.1a2.71,2.71,0,0,0-.37-.21l-.21-.08-.41-.13-.2,0a3.39,3.39,0,0,0-1.27,0l-.2.05-.41.13-.21.08a2.71,2.71,0,0,0-.37.21,1,1,0,0,0-.17.1l-.06,0L1.43,77.27l-.05,0-.15.12c-.11.1-.21.19-.31.3l-.15.17c-.08.11-.17.23-.24.35a1.74,1.74,0,0,0-.11.18A2.9,2.9,0,0,0,.17,79h0a3.42,3.42,0,0,0-.13.62,1.49,1.49,0,0,0,0,.21c0,.14,0,.28,0,.42s0,.16,0,.23a2.7,2.7,0,0,0,.08.41.8.8,0,0,0,0,.21.13.13,0,0,0,0,.06l40.27,124,0,.06a1.67,1.67,0,0,0,.08.2,2.53,2.53,0,0,0,.18.37l.12.2a2.85,2.85,0,0,0,.25.33c0,.06.09.12.14.17a3,3,0,0,0,.46.41h0l.06,0a3.45,3.45,0,0,0,.41.25,2.71,2.71,0,0,0,.3.13l.2.08.42.1.11,0a5.09,5.09,0,0,0,.55,0H174.09a4.91,4.91,0,0,0,.55,0l.11,0,.42-.1.2-.08.31-.13a3.34,3.34,0,0,0,.4-.25l.07,0h0a3,3,0,0,0,.46-.41,1.15,1.15,0,0,0,.14-.17A2.85,2.85,0,0,0,177,206l.12-.2a2.53,2.53,0,0,0,.18-.37,1.67,1.67,0,0,0,.08-.2l0-.06L217.69,81.18s0,0,0-.06,0-.14,0-.21.05-.27.07-.41,0-.15,0-.23S217.85,80,217.84,79.85Zm-28.18,4.61-4.88,1.59a14.47,14.47,0,0,0-21.63-3.44L122.37,53a14.47,14.47,0,0,0-9.94-19.51V10.37L206.75,78.9Zm-17.18,17.76a8.5,8.5,0,0,1-5.72-2.22q-.28-.27-.54-.54A8.49,8.49,0,0,1,164,93.71c0-.3,0-.6.05-.9a7.55,7.55,0,0,1,.13-.83A8.51,8.51,0,0,1,181,93.71c0,.32,0,.64-.05,1a8.53,8.53,0,0,1-7.53,7.5C173.11,102.2,172.8,102.22,172.48,102.22ZM158,94.76l-45.59,14.85v-48a14.43,14.43,0,0,0,5.82-3L159,88.27A14.3,14.3,0,0,0,158,93.71C158,94.07,158,94.41,158,94.76ZM100.41,47.54a8.51,8.51,0,0,1,5-7.75,8.34,8.34,0,0,1,7,0,8.5,8.5,0,0,1,5,7.75,8.26,8.26,0,0,1-.18,1.73,8.52,8.52,0,0,1-4.12,5.65,6.85,6.85,0,0,1-.71.37,8.44,8.44,0,0,1-7,0,6.1,6.1,0,0,1-.72-.37,8.52,8.52,0,0,1-4.12-5.65A9,9,0,0,1,100.41,47.54Zm-.81,11.1a14.41,14.41,0,0,0,5.83,3v48L59.83,94.76c0-.35.05-.69.05-1.05a14.48,14.48,0,0,0-1.06-5.44ZM36.86,93.71A8.52,8.52,0,0,1,53.71,92c0,.27.1.55.13.83s0,.6,0,.9a8.48,8.48,0,0,1-1.22,4.38,8.61,8.61,0,0,1-1,1.37,8.5,8.5,0,0,1-14.71-4.79A7.73,7.73,0,0,1,36.86,93.71Zm20.79,7.7,45.61,14.85L89,135.82a14.42,14.42,0,0,0-10.4-.17L56.25,103.28A14.46,14.46,0,0,0,57.65,101.41Zm33.53,51.71h0a8.74,8.74,0,0,1-1.11,1.66,8.54,8.54,0,0,1-10.33,2.07,8.42,8.42,0,0,1-3.53-3.38,8.51,8.51,0,0,1-.2-8.07c.12-.23.26-.44.4-.66a8.49,8.49,0,0,1,5.84-3.87,8.81,8.81,0,0,1,1.36-.12,8.3,8.3,0,0,1,1.71.19,8.12,8.12,0,0,1,2.14.74,8.53,8.53,0,0,1,4.23,4.95,9,9,0,0,1,.33,1.43A8.41,8.41,0,0,1,91.18,153.12Zm6.22-8.35a14.63,14.63,0,0,0-2.69-4.84l14.22-19.55,28.16,38.73a14.84,14.84,0,0,0-1.37,1.95l-37.63-11.2A14.57,14.57,0,0,0,97.4,144.77Zm58.18,27.88a8.52,8.52,0,0,1-5.66,4.11,8.07,8.07,0,0,1-1.71.18,8.52,8.52,0,0,1-8.43-7.37,8.77,8.77,0,0,1-.09-1.15,8.41,8.41,0,0,1,1.12-4.19,8.27,8.27,0,0,1,1-1.37,8.49,8.49,0,0,1,4.68-2.77c.26-.05.54-.09.81-.12a7.3,7.3,0,0,1,.94-.06,8.49,8.49,0,0,1,7.37,12.74Zm-7.37-18.74a14.42,14.42,0,0,0-5.47,1.08l-28.15-38.73,45.61-14.85a14.67,14.67,0,0,0,4.61,4.6l-15.59,48C148.89,153.94,148.55,153.91,148.21,153.91ZM105.43,10.37v23.1A14.47,14.47,0,0,0,95.48,53L54.7,82.61a14.47,14.47,0,0,0-21.63,3.44L28.2,84.46,11.1,78.9ZM24.51,90.63l6.4,2.08c0,.33-.05.66-.05,1a14.53,14.53,0,0,0,14.51,14.51,14.34,14.34,0,0,0,5.13-1l22.33,32.29a14.13,14.13,0,0,0-2.17,3.12,14.53,14.53,0,0,0,1.83,15.91l-18.22,25L45,196.44,8.94,85.56ZM50.64,200.55l8.63-11.88,18.89-26a14.46,14.46,0,0,0,18-6.12l37.61,11.19c0,.22,0,.43,0,.65a14.49,14.49,0,0,0,19.95,13.45l4.94,6.8,8.64,11.88Zm122.24-4.11-9.3-12.8-4.28-5.88a14.46,14.46,0,0,0-3.42-21.63l15.58-48c.34,0,.68,0,1,0A14.53,14.53,0,0,0,187,93.71c0-.34,0-.67-.05-1l6.4-2.08,15.57-5.07Z"/></g></g></svg>