<svg xmlns="http://www.w3.org/2000/svg" xmlns:xlink="http://www.w3.org/1999/xlink" viewBox="0 0 188 162"><defs><style>.cls-1{fill:#fff;}.cls-2{fill:url(#linear-gradient);}.cls-3{fill:url(#linear-gradient-2);}</style><linearGradient id="linear-gradient" x1="2.5" y1="125.5" x2="70.5" y2="125.5" gradientTransform="translate(-78.05 62.56) rotate(-45)" gradientUnits="userSpaceOnUse"><stop offset="0" stop-color="#83b755"/><stop offset="0.13" stop-color="#70b26d"/><stop offset="0.41" stop-color="#4aa89a"/><stop offset="0.66" stop-color="#2fa1bb"/><stop offset="0.86" stop-color="#1e9dd0"/><stop offset="1" stop-color="#189bd7"/></linearGradient><linearGradient id="linear-gradient-2" x1="2078.36" y1="6236.24" x2="2146.35" y2="6236.24" gradientTransform="translate(-5751.85 -2797.57) rotate(-45)" xlink:href="#linear-gradient"/></defs><title>cP18_iconAsset 59@1x</title><g id="Layer_2" data-name="Layer 2"><g id="outlined"><polygon class="cls-1" points="96.31 48.24 96.31 48.24 96.31 48.24 96.31 48.24"/><path class="cls-1" d="M155.58,77.34l13-13a10.08,10.08,0,0,0,0-14.23l-.41-.41a9.93,9.93,0,0,0-5.42-2.79l-.28-.05a12.14,12.14,0,0,0-1.31-15.61,12,12,0,0,0-7.47-3.49c-.32,0-.64,0-1-.05a12.19,12.19,0,0,0,1.31-6.5A12.08,12.08,0,0,0,142.94,10c-.32,0-.63,0-.95,0a12.08,12.08,0,0,0-6.81,2.08,12.12,12.12,0,0,0-20.68-8l-.26.26a10.81,10.81,0,0,0-7.74-3.24H76.94a10.85,10.85,0,0,0-7.71,3.21l-.8-.8a12.13,12.13,0,0,0-20.68,9.27,12.07,12.07,0,0,0-12.89,2.77,12.32,12.32,0,0,0-3.37,10.71A13.08,13.08,0,0,0,28.68,26,12.65,12.65,0,0,0,17.93,45.32,11.16,11.16,0,0,0,10.6,64.37L32.87,86.65l-.11.11L11.53,108l3,3,9.9-9.9,39.34,39.34-9.9,9.9,3,3,22.81-22.81a26.79,26.79,0,0,0,28.62-6l1.85-1.85,22.58,22.58,3-3-9.9-9.9,39.37-39.37,9.89,9.9,3-3ZM70.28,12c0-.21,0-.42,0-.62a6.68,6.68,0,0,1,6.63-6H106.5a6.65,6.65,0,0,1,4.75,2L99.93,18.67h-23A6.67,6.67,0,0,1,70.28,12Zm-16-5.48h0a7.92,7.92,0,0,1,11.18,0l1.41,1.4a10.87,10.87,0,0,0,10.09,15h4.87l7,7,3,3,1.41,1.42a7.92,7.92,0,0,1,0,11.18h0A7.77,7.77,0,0,1,91,47a7.92,7.92,0,0,1-3.4.76,8.06,8.06,0,0,1-2.07-.27,7.87,7.87,0,0,1-3.52-2L54.26,17.71A7.94,7.94,0,0,1,54.26,6.53ZM37.85,18.59h0a7.89,7.89,0,0,1,11.18,0L79.5,49.32a8,8,0,0,1,0,11.27h0a7.88,7.88,0,0,1-10.34.74,11.54,11.54,0,0,0-1-1.11l-28-28-2.33-2.35A8,8,0,0,1,37.85,18.59Zm-15,14.21h0a8.28,8.28,0,0,1,11.68,0L65.06,63.33a8.29,8.29,0,0,1,0,11.68h0a8.28,8.28,0,0,1-11.68,0L22.84,44.47A8.27,8.27,0,0,1,22.84,32.8ZM13.58,51.56a7,7,0,0,1,9.83,0L48.13,76.28a7,7,0,0,1,0,9.83h0a7,7,0,0,1-9.83,0L13.58,61.39A7,7,0,0,1,13.58,51.56Zm53,86.1L27.28,98.32,35.8,89.8l34.81,34.81a26.58,26.58,0,0,0,5.08,4Zm38.75-16a22.55,22.55,0,0,1-31.78,0L44.27,92.31A11.15,11.15,0,0,0,54.38,80.88a12.73,12.73,0,0,0,4.84,1A12.64,12.64,0,0,0,71.68,67a12.67,12.67,0,0,0,2.23.2,12,12,0,0,0,8.57-3.57,12.31,12.31,0,0,0,3.14-11.8,12.62,12.62,0,0,0,1.95.16,12.46,12.46,0,0,0,3.06-.39,12,12,0,0,0,5.52-3.16,1.29,1.29,0,0,0,.16-.17,12.14,12.14,0,0,0-.16-17l-1.42-1.42,7-6.95h0l1.24-1.23,10.81-10.81,3.76-3.76a7.94,7.94,0,0,1,11.18,0h0a7.94,7.94,0,0,1,0,11.18l-7,7a2.21,2.21,0,0,0-.37.6,2.13,2.13,0,0,0,2,2.93,2.22,2.22,0,0,0,.8-.15,2.93,2.93,0,0,0,.39-.21h0a2.78,2.78,0,0,0,.32-.26L137,16a7.93,7.93,0,0,1,10.59.54h0a7.93,7.93,0,0,1,.36,10.78l-10.8,10.8-.15.17,0,0a2.19,2.19,0,0,0,1.73,3.53,2.23,2.23,0,0,0,.88-.18h0a2.42,2.42,0,0,0,.66-.45l8-8a7.92,7.92,0,0,1,10,1h0a7.94,7.94,0,0,1,0,11.18L149,54.57v0l-2.25,2.25-.17.19a2.14,2.14,0,0,0,1.68,3.46,2.18,2.18,0,0,0,1.1-.31l.14-.09a2.76,2.76,0,0,0,.27-.23l1.29-1.28,6.32-6.33a5.87,5.87,0,0,1,3.68-1.3,5.79,5.79,0,0,1,4.12,1.71l.41.41a5.85,5.85,0,0,1,0,8.25L152.49,74.45l-9.28,9.28c-.29.32-.58.64-.88.94l-15,15Zm17.73,8-9.87-9.87,32.08-32.09c.33-.33.64-.67.95-1l6.3-6.3,9.91,9.9Z"/><rect class="cls-2" x="-1.43" y="112.95" width="75.86" height="25.09" rx="4.09" transform="translate(99.43 10.95) rotate(45)"/><path class="cls-1" d="M54.44,162a6.54,6.54,0,0,1-4.65-1.93L1.93,112.21a6.61,6.61,0,0,1,0-9.32l12-12a6.6,6.6,0,0,1,9.32,0l47.86,47.86a6.6,6.6,0,0,1,0,9.31l-12,12A6.56,6.56,0,0,1,54.44,162ZM18.55,94a1.59,1.59,0,0,0-1.13.46l-12,12a1.59,1.59,0,0,0,0,2.25l47.86,47.86a1.63,1.63,0,0,0,2.25,0l12-12a1.59,1.59,0,0,0,0-2.25L19.67,94.46A1.58,1.58,0,0,0,18.55,94Z"/><rect class="cls-3" x="113.57" y="105.91" width="75.86" height="25.09" rx="4.09" transform="translate(-39.39 141.82) rotate(-45)"/><path class="cls-1" d="M133.55,155a6.6,6.6,0,0,1-4.66-1.93l-12-12a6.58,6.58,0,0,1,0-9.31l47.86-47.86a6.59,6.59,0,0,1,9.32,0l12,12a6.6,6.6,0,0,1,0,9.32L138.21,153A6.58,6.58,0,0,1,133.55,155Zm35.9-68a1.54,1.54,0,0,0-1.12.46l-47.87,47.86a1.61,1.61,0,0,0,0,2.25l12,12a1.58,1.58,0,0,0,2.24,0l47.86-47.86a1.58,1.58,0,0,0,0-2.24l-12-12A1.57,1.57,0,0,0,169.45,87Z"/></g></g></svg>