<svg xmlns="http://www.w3.org/2000/svg" xmlns:xlink="http://www.w3.org/1999/xlink" viewBox="0 0 194.69 251.81"><defs><style>.cls-1{fill:#fff;}.cls-2{fill:url(#linear-gradient);}.cls-3{fill:url(#linear-gradient-2);}.cls-4{fill:url(#linear-gradient-3);}</style><linearGradient id="linear-gradient" x1="76.27" y1="90.83" x2="117.64" y2="90.83" gradientUnits="userSpaceOnUse"><stop offset="0" stop-color="#83b755"/><stop offset="0.13" stop-color="#70b26d"/><stop offset="0.41" stop-color="#4aa89a"/><stop offset="0.66" stop-color="#2fa1bb"/><stop offset="0.86" stop-color="#1e9dd0"/><stop offset="1" stop-color="#189bd7"/></linearGradient><linearGradient id="linear-gradient-2" x1="37.65" y1="130.11" x2="96.86" y2="130.11" xlink:href="#linear-gradient"/><linearGradient id="linear-gradient-3" x1="96.86" y1="130.11" x2="156.08" y2="130.11" xlink:href="#linear-gradient"/></defs><title>cP18_iconAsset 56@1x</title><g id="Layer_2" data-name="Layer 2"><g id="outlined"><path class="cls-1" d="M130.82,201H63.26a3,3,0,0,1-3-3V187.36a97.35,97.35,0,1,1,131-115.72,3,3,0,0,1-5.79,1.58A91.34,91.34,0,1,0,64.34,182.53a3,3,0,0,1,1.92,2.79V195h61.56v-9.45a3,3,0,0,1,1.94-2.81,91.34,91.34,0,0,0,56.18-63.17,3,3,0,1,1,5.82,1.45,97.32,97.32,0,0,1-57.94,66.57V198A3,3,0,0,1,130.82,201Z"/><path class="cls-2" d="M117.64,90.83C117.64,66.55,97,49.09,97,49.09S76.27,66.67,76.27,90.83,97,132.56,97,132.56,117.64,115.1,117.64,90.83Z"/><path class="cls-1" d="M97,136.49,95,134.85c-.89-.76-21.74-18.77-21.74-44S94.12,47.56,95,46.8L97,45.16l1.94,1.64c.89.75,21.75,18.65,21.75,44s-20.86,43.28-21.75,44Zm0-83.28c-5,4.95-17.7,19.45-17.7,37.62S92,123.51,97,128.45c5-4.93,17.68-19.37,17.68-37.62S101.92,58.12,97,53.21Z"/><rect class="cls-1" x="93.96" y="159.62" width="6" height="40.03"/><path class="cls-1" d="M95.93,251.81a36.78,36.78,0,0,1-36.74-36.74,35.45,35.45,0,0,1,.23-4.07l.29-2.67h72.44l.29,2.68a37.83,37.83,0,0,1,.23,4.06A36.78,36.78,0,0,1,95.93,251.81ZM65.2,214.33c0,.25,0,.5,0,.74a30.74,30.74,0,1,0,61.48,0c0-.24,0-.49,0-.74Z"/><path class="cls-1" d="M130.26,214.33H61.59a9.67,9.67,0,0,1,0-19.33h68.67a9.67,9.67,0,1,1,0,19.33ZM61.59,201a3.67,3.67,0,0,0,0,7.33h68.67a3.67,3.67,0,1,0,0-7.33Z"/><path class="cls-3" d="M52.63,144.73c17.17,17.17,44.14,14.89,44.14,14.89s2.2-27.06-14.88-44.14-44.14-14.89-44.14-14.89S35.47,127.56,52.63,144.73Z"/><path class="cls-1" d="M93.37,162.73c-8.25,0-28.56-1.58-42.86-15.88-17.94-17.94-15.85-45.35-15.75-46.51L35,97.81l2.54-.21c1.16-.09,28.64-2.1,46.5,15.76s15.85,45.34,15.75,46.5l-.2,2.53L97,162.6C96.79,162.62,95.47,162.73,93.37,162.73ZM40.66,103.51c0,7,1.19,26.2,14.09,39.1s32.15,14.1,39.11,14.1c0-7-1.25-26.27-14.09-39.11s-32.09-14.09-39.1-14.09Z"/><path class="cls-4" d="M141.09,144.73C158.26,127.56,156,100.59,156,100.59s-27.06-2.19-44.14,14.89S97,159.62,97,159.62,123.93,161.9,141.09,144.73Z"/><path class="cls-1" d="M100.36,162.73c-2.1,0-3.42-.11-3.66-.13l-2.53-.21-.2-2.53c-.1-1.16-2.11-28.65,15.75-46.5s45.34-15.85,46.5-15.76l2.53.21.22,2.53c.1,1.16,2.19,28.57-15.75,46.51C128.92,161.15,108.61,162.73,100.36,162.73Zm-.49-6H100c7.11,0,26.13-1.29,38.94-14.1s14.12-32.11,14.1-39.1h0c-7,0-26.26,1.25-39.1,14.09S99.87,149.7,99.87,156.71Z"/><path class="cls-1" d="M97,113a3,3,0,0,1-3-3V76a3,3,0,0,1,6,0v34A3,3,0,0,1,97,113Z"/><path class="cls-1" d="M83.2,147.67a3,3,0,0,1-2-.81L56.88,124.19A3,3,0,1,1,61,119.81l24.28,22.66a3,3,0,0,1,.14,4.24A3,3,0,0,1,83.2,147.67Z"/><path class="cls-1" d="M111.14,148.47a3,3,0,0,1-2.19-5.05l22.66-24.27a3,3,0,1,1,4.39,4.1l-22.67,24.27A3,3,0,0,1,111.14,148.47Z"/><path class="cls-1" d="M54.93,71.67a3,3,0,0,1-2.14-.9l-13.73-14a3,3,0,1,1,4.28-4.2l13.73,14a3,3,0,0,1-2.14,5.1Z"/><path class="cls-1" d="M136.92,74.33a3,3,0,0,1-2.47-4.69l9.61-14A3,3,0,1,1,149,59l-9.6,14A3,3,0,0,1,136.92,74.33Z"/><path class="cls-1" d="M97,36.33a3,3,0,0,1-3-3V24a3,3,0,0,1,6,0v9.33A3,3,0,0,1,97,36.33Z"/><circle class="cls-1" cx="189.85" cy="95.34" r="4.34"/><path class="cls-1" d="M189.85,100.18a4.84,4.84,0,1,1,4.84-4.84A4.84,4.84,0,0,1,189.85,100.18Zm0-8.68a3.84,3.84,0,1,0,3.84,3.84A3.85,3.85,0,0,0,189.85,91.5Z"/></g></g></svg>